# xmcd
#
# Track frame offsets: 
#        150
#        19622
#        43622
#        58272
#
# Disc length: 1035 seconds
#
# Revision: 0
# Processed by: cddbd v1.5.1PL2 Copyright (c) Steve Scherf et al.
# Submitted via: ExactAudioCopy v0.95b4
#
DISCID=2d040904
DTITLE=Dan Fogelberg - Mega Hit
DYEAR=1981
DGENRE=Country
TTITLE0=Leader Of the Band
TTITLE1=Same Old Lang Syne
TTITLE2=Longer
TTITLE3=Power of God
EXTD=
EXTT0=
EXTT1=
EXTT2=
EXTT3=
PLAYORDER=
